<svg width="22" height="22" viewBox="0 0 22 22" fill="none" xmlns="http://www.w3.org/2000/svg">
<rect width="22" height="22" rx="11" fill="#E6A935"/>
<rect x="1.34766" y="1.34766" width="19.3" height="19.3" rx="9.65" stroke="white" stroke-width="0.5"/>
<path d="M11.2354 6.04688C12.4342 6.04688 13.3645 6.3627 14.0262 6.99434C14.6879 7.62598 15.0553 8.34355 15.1283 9.14707H13.8779C13.7361 8.53691 13.4525 8.05352 13.0271 7.69688C12.6061 7.34023 12.0131 7.16191 11.2482 7.16191C10.3158 7.16191 9.56172 7.49063 8.98594 8.14805C8.41445 8.80117 8.12871 9.80449 8.12871 11.158C8.12871 12.2666 8.38652 13.1668 8.90215 13.8586C9.42207 14.5461 10.1955 14.8898 11.2225 14.8898C12.1678 14.8898 12.8875 14.5268 13.3816 13.8006C13.6438 13.4182 13.8393 12.9154 13.9682 12.2924H15.2186C15.1068 13.2893 14.7373 14.125 14.11 14.7996C13.358 15.6117 12.3439 16.0178 11.0678 16.0178C9.96777 16.0178 9.04395 15.6848 8.29629 15.0188C7.3123 14.1379 6.82031 12.7779 6.82031 10.9389C6.82031 9.54238 7.18984 8.39727 7.92891 7.50352C8.72813 6.53242 9.83027 6.04688 11.2354 6.04688Z" fill="white"/>
</svg>
