<svg width="120" height="24" viewBox="0 0 120 24" fill="none" xmlns="http://www.w3.org/2000/svg">
<g clip-path="url(#clip0_3226_93700)">
<path d="M3.75501 14.8822V17.8257C3.75501 18.3327 3.56342 18.7787 3.18026 19.1543C2.7971 19.5298 2.34209 19.7176 1.82482 19.7176C1.30755 19.7176 0.871698 19.5298 0.522061 19.1543C0.172424 18.7787 0 18.3374 0 17.8257V5.76049C0 5.25347 0.172424 4.83095 0.522061 4.49763C0.871698 4.16431 1.30276 4 1.82482 4C2.34209 4 2.79231 4.16431 3.18026 4.49763C3.56342 4.83095 3.75501 5.25347 3.75501 5.76049V11.2297L7.61538 7.05151C7.95544 6.66655 8.37692 6.4459 8.87503 6.39426C9.37315 6.34262 9.82336 6.50693 10.2161 6.89189C10.6088 7.22521 10.81 7.63834 10.8196 8.12658C10.8292 8.61952 10.6711 9.05612 10.3502 9.44108L6.99753 12.9902L10.3502 16.5394C10.5131 16.7318 10.6328 16.9525 10.7142 17.1966C10.7956 17.4407 10.8292 17.6895 10.8196 17.9337C10.81 18.1778 10.7573 18.4125 10.6567 18.6285C10.5562 18.8491 10.4125 19.0369 10.2161 19.1918C9.82336 19.5251 9.37315 19.6895 8.87503 19.6801C8.37213 19.6707 7.95544 19.4735 7.61538 19.0885L3.75501 14.8822Z" fill="white"/>
<path d="M13.9998 7.94341C13.4634 7.94341 13.0036 7.77441 12.6204 7.4317C12.2373 7.08899 12.0457 6.67586 12.0457 6.18293C12.0457 5.65713 12.2373 5.20644 12.6204 4.83087C13.0036 4.4553 13.4634 4.26752 13.9998 4.26752C14.4452 4.26752 14.8571 4.4553 15.2355 4.83087C15.6091 5.20644 15.8007 5.65713 15.8007 6.18293C15.8007 6.67586 15.6139 7.08899 15.2355 7.4317C14.8571 7.76971 14.4452 7.94341 13.9998 7.94341ZM15.7959 17.7505C15.7959 18.2575 15.6283 18.7082 15.2882 19.0932C14.9481 19.4781 14.5171 19.6706 13.9998 19.6706C13.4107 19.6706 12.9365 19.4781 12.5773 19.0932C12.2181 18.7082 12.0409 18.2622 12.0409 17.7505V10.7039C12.0409 10.1968 12.2181 9.75085 12.5773 9.36119C12.9365 8.97623 13.4107 8.78375 13.9998 8.78375C14.5171 8.78375 14.9481 8.97623 15.2882 9.36119C15.6283 9.74615 15.7959 10.1921 15.7959 10.7039V17.7505Z" fill="white"/>
<path d="M24.3536 18.1915C24.1703 18.8097 23.8994 19.2666 23.5408 19.5584C23.1782 19.8502 22.6762 20 22.0347 20C20.7836 20 19.9668 19.3972 19.5883 18.1915L17.1937 10.4813C17.0104 9.9245 17.0502 9.43685 17.3052 9.01832C17.5602 8.59979 17.9746 8.33101 18.5523 8.21966C19.1301 8.1083 19.6002 8.18894 19.9708 8.45772C20.3413 8.7265 20.5923 9.14887 20.7238 9.71716L22.0068 15.4768H22.0546L23.7599 10.1203C23.9591 9.48677 24.2301 9.00296 24.5767 8.66891C24.9234 8.33485 25.4254 8.16974 26.0828 8.16974C26.7402 8.16974 27.2423 8.33485 27.5889 8.66891C27.9355 9.00296 28.2065 9.48677 28.4057 10.1203L30.111 15.4768H30.1588L31.4418 9.71716C31.5733 9.14503 31.8243 8.7265 32.1948 8.45772C32.5654 8.18894 33.0395 8.1083 33.6133 8.21966C34.191 8.33101 34.6054 8.59595 34.8604 9.01832C35.1154 9.44069 35.1512 9.92834 34.9719 10.4813L32.5773 18.1915C32.1988 19.3972 31.382 20 30.1309 20C29.4894 20 28.9874 19.8541 28.6248 19.5584C28.2623 19.2666 27.9913 18.8097 27.812 18.1915L26.1067 12.5739H26.0589L24.3536 18.1915Z" fill="white"/>
<path d="M38.4276 7.94341C37.8911 7.94341 37.4313 7.77441 37.0482 7.4317C36.665 7.08899 36.4734 6.67586 36.4734 6.18293C36.4734 5.65713 36.665 5.20644 37.0482 4.83087C37.4313 4.4553 37.8911 4.26752 38.4276 4.26752C38.873 4.26752 39.2849 4.4553 39.6633 4.83087C40.0368 5.20644 40.2284 5.65713 40.2284 6.18293C40.2284 6.67586 40.0416 7.08899 39.6633 7.4317C39.2849 7.76971 38.873 7.94341 38.4276 7.94341ZM40.2236 17.7505C40.2236 18.2575 40.056 18.7082 39.7159 19.0932C39.3759 19.4781 38.9448 19.6706 38.4276 19.6706C37.8384 19.6706 37.3643 19.4781 37.0051 19.0932C36.6458 18.7082 36.4686 18.2622 36.4686 17.7505V10.7039C36.4686 10.1968 36.6458 9.75085 37.0051 9.36119C37.3643 8.97623 37.8384 8.78375 38.4276 8.78375C38.9448 8.78375 39.3759 8.97623 39.7159 9.36119C40.056 9.74615 40.2236 10.1921 40.2236 10.7039V17.7505Z" fill="white"/>
<path d="M79.8907 9.45219C79.6576 9.86569 79.3911 10.1414 79.0914 10.2884C78.7869 10.4354 78.4776 10.4951 78.1588 10.4676C77.8401 10.44 77.5118 10.3711 77.174 10.247C76.8362 10.1276 76.5174 10.0173 76.2129 9.91164C75.9131 9.81056 75.6324 9.73705 75.3755 9.6911C75.1186 9.64975 74.9092 9.70488 74.7475 9.8565C74.5524 10.0633 74.5524 10.247 74.7475 10.4078C74.9425 10.5687 75.2423 10.7387 75.6515 10.9087C76.0606 11.0786 76.5317 11.2762 77.0645 11.5013C77.5974 11.7265 78.097 11.9976 78.568 12.3238C79.039 12.65 79.4387 13.0451 79.767 13.5092C80.0953 13.9732 80.2618 14.5291 80.2618 15.1816C80.2618 16.1418 80.0762 16.9091 79.7004 17.4834C79.3293 18.0577 78.8773 18.4988 78.3539 18.8067C77.8305 19.1145 77.2929 19.3166 76.741 19.4131C76.1891 19.505 75.7371 19.5556 75.3803 19.5556C75.1662 19.5556 74.8759 19.5234 74.5001 19.4637C74.129 19.4039 73.734 19.3121 73.3296 19.1926C72.9205 19.0731 72.5113 18.9123 72.1021 18.7148C71.6929 18.5172 71.3409 18.2829 71.0506 18.0072C70.7556 17.7315 70.5511 17.4145 70.4226 17.0561C70.2989 16.6978 70.3179 16.2843 70.4749 15.8202C70.689 15.4067 70.9507 15.1494 71.26 15.0345C71.5692 14.9243 71.9023 14.8967 72.2591 14.9564C72.616 15.0162 72.9871 15.1264 73.3772 15.2918C73.7674 15.4526 74.1432 15.5997 74.5096 15.7283C74.8712 15.857 75.2185 15.9351 75.5468 15.958C75.8751 15.9856 76.1653 15.8937 76.4127 15.687C76.6458 15.4481 76.6696 15.2413 76.4936 15.0713C76.3176 14.9013 76.0178 14.7359 75.5991 14.5843C75.1804 14.4281 74.6999 14.2535 74.1623 14.0559C73.6199 13.8583 73.1013 13.6056 72.6017 13.2978C72.1021 12.99 71.6882 12.6086 71.3504 12.1538C71.0126 11.6989 70.846 11.1292 70.846 10.4446C70.846 9.64056 71.0078 8.96516 71.3266 8.42301C71.6454 7.88086 72.0403 7.44897 72.5113 7.12276C72.9823 6.79655 73.4962 6.56682 74.0576 6.42898C74.619 6.29115 75.1376 6.22223 75.6182 6.22223C76.2938 6.22223 76.9361 6.31412 77.5498 6.49331C78.1636 6.67249 78.6822 6.91141 79.1104 7.20086C79.5386 7.49491 79.8288 7.83031 79.9906 8.21626C80.1571 8.61598 80.1191 9.02489 79.8907 9.45219Z" fill="white"/>
<path d="M87.4721 6.67144C88.2624 6.67144 89.0105 6.83287 89.7205 7.15098C90.4305 7.4691 91.0517 7.91066 91.5885 8.46617C92.1252 9.02643 92.5521 9.69115 92.8648 10.4603C93.1776 11.2295 93.3382 12.0794 93.3382 13.0005V17.132C93.3382 17.6637 93.1733 18.1148 92.8395 18.4899C92.5098 18.8602 92.1125 19.0502 91.6561 19.0502C91.1997 19.0502 90.8193 18.865 90.5192 18.4899C90.2192 18.1196 90.0713 17.6637 90.0713 17.132V12.9957C90.0079 12.483 89.8811 12.0224 89.6909 11.6141C89.5176 11.258 89.2556 10.9351 88.909 10.6455C88.5625 10.3511 88.0807 10.2087 87.4636 10.2087C86.8339 10.2087 86.3479 10.3559 86.0098 10.6455C85.6717 10.9399 85.4139 11.2627 85.2406 11.6141C85.0504 12.0224 84.9321 12.483 84.8856 12.9957V17.1692C84.8856 17.682 84.7208 18.1378 84.3869 18.5271C84.0573 18.9165 83.66 19.1111 83.2036 19.1111C82.7302 19.1111 82.3456 18.9165 82.054 18.5271C81.7624 18.1378 81.6145 17.6867 81.6145 17.1692V8.45193C81.6145 7.92015 81.7582 7.49283 82.054 7.16048C82.3456 6.83287 82.7302 6.66669 83.2036 6.66669C83.4698 6.66669 83.7361 6.72841 83.9981 6.85186C84.2601 6.97531 84.4503 7.15573 84.5771 7.38363C85.0166 7.15573 85.4858 6.97531 85.9718 6.85186C86.4705 6.73316 86.9649 6.67144 87.4721 6.67144Z" fill="white"/>
<path d="M105.964 17.3877C105.964 17.8496 105.813 18.2558 105.521 18.598C105.224 18.9401 104.848 19.1111 104.396 19.1111C104.037 19.1111 103.744 19.0299 103.519 18.8717C103.293 18.7134 103.084 18.521 102.9 18.2986C102.511 18.521 102.072 18.7134 101.588 18.8717C101.103 19.0299 100.614 19.1111 100.112 19.1111C99.2847 19.1111 98.5115 18.9529 97.7968 18.6322C97.0779 18.3114 96.4593 17.8795 95.9369 17.3278C95.4144 16.7761 95.0007 16.1389 94.6956 15.4119C94.3905 14.6849 94.24 13.9237 94.24 13.124C94.24 12.2943 94.3905 11.5117 94.6956 10.7761C95.0007 10.0406 95.4144 9.40338 95.9369 8.86026C96.4593 8.31713 97.0779 7.88948 97.7968 7.57729C98.5157 7.2651 99.2847 7.11115 100.112 7.11115C100.906 7.11115 101.655 7.26082 102.348 7.55591C103.042 7.85099 103.652 8.25726 104.175 8.779C104.697 9.29646 105.119 9.90801 105.437 10.6094C105.755 11.3107 105.93 12.0719 105.964 12.8845V17.3877ZM100.112 15.784C100.86 15.784 101.475 15.5317 101.951 15.0313C102.428 14.5267 102.666 13.8938 102.666 13.1283C102.666 12.7434 102.603 12.3841 102.478 12.0506C102.352 11.717 102.177 11.4262 101.951 11.1781C101.726 10.9301 101.454 10.7334 101.145 10.5794C100.831 10.4297 100.488 10.3528 100.116 10.3528C99.7403 10.3528 99.3934 10.4297 99.0757 10.5794C98.7539 10.7291 98.4781 10.9301 98.244 11.1781C98.0099 11.4262 97.826 11.717 97.6923 12.0506C97.5585 12.3841 97.4917 12.7434 97.4917 13.1283C97.4917 13.5131 97.5585 13.8638 97.6923 14.1803C97.826 14.501 98.0099 14.779 98.244 15.0185C98.4781 15.258 98.7539 15.4461 99.0757 15.583C99.3934 15.7156 99.7403 15.784 100.112 15.784Z" fill="white"/>
<path d="M107.321 11.747C107.367 11.0459 107.492 10.4368 107.697 9.93295C107.897 9.42467 108.123 9.00403 108.365 8.67102C108.607 8.33802 108.841 8.06635 109.067 7.86041C109.293 7.65447 109.46 7.48797 109.568 7.35652C109.66 7.27327 109.781 7.21192 109.932 7.17249C110.078 7.13305 110.237 7.11115 110.4 7.11115C110.563 7.11115 110.73 7.13305 110.901 7.17249C111.072 7.21192 111.227 7.27327 111.369 7.35652C111.666 7.29079 111.954 7.23821 112.234 7.19878C112.514 7.15934 112.827 7.13744 113.17 7.13744C113.964 7.13744 114.72 7.29518 115.426 7.61504C116.136 7.9349 116.759 8.37307 117.298 8.92954C117.837 9.48602 118.259 10.1345 118.572 10.8794C118.885 11.6243 119.04 12.4217 119.04 13.2718C119.04 14.1218 118.885 14.9193 118.572 15.6642C118.259 16.4091 117.837 17.0576 117.298 17.614C116.759 18.1705 116.136 18.6087 115.426 18.9285C114.716 19.2484 113.964 19.4061 113.17 19.4061C112.668 19.4061 112.213 19.3536 111.799 19.2484C111.386 19.1432 110.976 18.9986 110.571 18.819V21.8862C110.571 22.3594 110.408 22.7581 110.078 23.078C109.748 23.3979 109.359 23.5556 108.908 23.5556C108.457 23.5556 108.077 23.3979 107.772 23.078C107.467 22.7581 107.316 22.3638 107.316 21.8862V11.747H107.321ZM113.17 15.9928C113.918 15.9928 114.544 15.7343 115.042 15.2216C115.539 14.7046 115.79 14.0561 115.79 13.2718C115.79 12.895 115.723 12.5357 115.589 12.1939C115.455 11.8521 115.271 11.5498 115.037 11.2869C114.803 11.024 114.528 10.818 114.206 10.6603C113.884 10.5069 113.538 10.4281 113.166 10.4281C112.493 10.4281 111.925 10.6603 111.457 11.1291C110.989 11.598 110.692 12.1545 110.567 12.8117V13.7669C110.692 14.4198 110.989 14.9587 111.457 15.375C111.925 15.7913 112.501 15.9928 113.17 15.9928Z" fill="white"/>
<path d="M55.5006 23.804C62.2068 23.804 67.6432 18.4753 67.6432 11.902C67.6432 5.32871 62.2068 0 55.5006 0C48.7944 0 43.3579 5.32871 43.3579 11.902C43.3579 18.4753 48.7944 23.804 55.5006 23.804Z" fill="black"/>
<path fill-rule="evenodd" clip-rule="evenodd" d="M55.6029 0.000244141C62.3782 0.000244141 67.8449 5.35865 67.8449 11.9996C67.8449 18.6406 62.3782 23.999 55.6029 23.999C48.8277 23.999 43.361 18.6406 43.361 11.9996C43.361 5.35865 48.8277 0.000244141 55.6029 0.000244141ZM50.982 17.8866L45.1293 7.9989C44.6666 9.20635 44.3601 10.564 44.3601 11.9996C44.3601 14.1141 45.0526 16.1506 46.1312 17.8866H50.982ZM45.6714 6.86657L48.0585 11.0175L53.9113 1.12979C50.2895 1.66118 47.2865 3.84795 45.6714 6.86657ZM55.1403 0.98234L52.7532 5.1333H64.3026C62.3015 2.64328 59.1453 0.98234 55.6029 0.98234C55.4497 0.98234 55.2936 0.98234 55.1403 0.98234ZM65.0718 6.11261H60.2976L65.9943 16.0003C66.5336 14.7929 66.7635 13.4352 66.7635 11.9996C66.7663 9.81008 66.1504 7.84867 65.0718 6.11261ZM65.4578 17.1327L63.0708 12.9817L57.2975 22.8695C60.8398 22.3381 63.84 20.1513 65.4578 17.1327ZM56.0656 22.9418L58.4527 18.866H46.8266C48.9043 21.356 52.0635 22.9418 55.6029 22.9418C55.7562 22.9418 55.9095 22.9418 56.0656 22.9418ZM59.0686 17.8866L62.5343 11.9996L59.1453 6.11261H52.1401L48.6744 11.9996L52.1401 17.8866H59.0686Z" fill="#9AC941"/>
<path fill-rule="evenodd" clip-rule="evenodd" d="M47.6722 12.2917C48.6742 11.9996 52.1314 18.8659 52.1314 18.8659H58.7719L62.5341 11.9996L59.145 6.11255H52.1399L47.6722 12.2917Z" fill="#9AC941"/>
<path d="M55.6169 7.90746C55.758 7.90746 55.8723 7.64464 55.8723 7.32043C55.8723 6.99622 55.758 6.7334 55.6169 6.7334C55.4758 6.7334 55.3615 6.99622 55.3615 7.32043C55.3615 7.64464 55.4758 7.90746 55.6169 7.90746Z" fill="#3A2921"/>
<path d="M55.6169 17.2665C55.758 17.2665 55.8723 17.0036 55.8723 16.6794C55.8723 16.3552 55.758 16.0924 55.6169 16.0924C55.4758 16.0924 55.3615 16.3552 55.3615 16.6794C55.3615 17.0036 55.4758 17.2665 55.6169 17.2665Z" fill="#3A2921"/>
<path d="M50.8257 12.1477C51.1565 12.1477 51.4246 12.0356 51.4246 11.8973C51.4246 11.759 51.1565 11.6469 50.8257 11.6469C50.4949 11.6469 50.2268 11.759 50.2268 11.8973C50.2268 12.0356 50.4949 12.1477 50.8257 12.1477Z" fill="#3A2921"/>
<path d="M60.3798 12.1477C60.7106 12.1477 60.9787 12.0356 60.9787 11.8973C60.9787 11.759 60.7106 11.6469 60.3798 11.6469C60.049 11.6469 59.7809 11.759 59.7809 11.8973C59.7809 12.0356 60.049 12.1477 60.3798 12.1477Z" fill="#3A2921"/>
<path d="M52.3018 15.4474C52.5509 15.2341 52.6777 14.9768 52.5849 14.8727C52.4921 14.7685 52.2149 14.8569 51.9657 15.0702C51.7166 15.2835 51.5899 15.5408 51.6827 15.645C51.7755 15.7491 52.0527 15.6607 52.3018 15.4474Z" fill="#3A2921"/>
<path d="M59.5536 15.5451C59.6408 15.4364 59.5006 15.1858 59.2406 14.9855C58.9805 14.7851 58.699 14.7108 58.6119 14.8196C58.5247 14.9283 58.6648 15.1788 58.9248 15.3792C59.1849 15.5796 59.4664 15.6539 59.5536 15.5451Z" fill="#3A2921"/>
<path d="M52.5649 9.17928C52.6521 9.07056 52.512 8.82 52.2519 8.61964C51.9919 8.41928 51.7104 8.34499 51.6232 8.45371C51.536 8.56243 51.6761 8.813 51.9362 9.01336C52.1962 9.21372 52.4777 9.28801 52.5649 9.17928Z" fill="#3A2921"/>
<path d="M59.2833 9.34206C59.5324 9.12879 59.6591 8.87147 59.5663 8.76731C59.4735 8.66315 59.1963 8.7516 58.9472 8.96486C58.6981 9.17813 58.5713 9.43545 58.6641 9.53961C58.7569 9.64377 59.0341 9.55532 59.2833 9.34206Z" fill="#3A2921"/>
</g>
<defs>
<clipPath id="clip0_3226_93700">
<rect width="119.04" height="24" fill="white"/>
</clipPath>
</defs>
</svg>
