<svg width="27" height="24" viewBox="0 0 27 24" fill="none" xmlns="http://www.w3.org/2000/svg">
<path d="M4.10941 6.98414H23.5997V20.6688C23.5997 21.1268 23.2283 21.4981 22.7703 21.4981H4.93879C4.48074 21.4981 4.10941 21.1268 4.10941 20.6688V6.98414Z" fill="#F3F3F3"/>
<path d="M21.9947 2.83728H5.7144L2.86536 6.98414H24.8437L21.9947 2.83728Z" fill="#F3F3F3"/>
<path d="M2.86536 6.98414H8.67096M2.86536 6.98414V9.05757C2.86536 9.74464 3.42234 10.3016 4.10941 10.3016M2.86536 6.98414H24.8437M2.86536 6.98414L5.7144 2.83728H21.9947L24.8437 6.98414M8.25627 6.98414H14.0619M13.6472 6.98414H19.4528M19.0381 6.98414H24.8437M24.8437 6.98414V9.05757C24.8437 9.74464 24.2867 10.3016 23.5997 10.3016M4.10941 6.98414H23.5997V20.6688C23.5997 21.1268 23.2283 21.4982 22.7703 21.4982H4.93879C4.48074 21.4982 4.10941 21.1268 4.10941 20.6688V6.98414Z" stroke="#12121D" stroke-width="0.64"/>
<path d="M3.04313 7.16319H8.49318V9.23623C8.49318 9.72715 8.09521 10.1251 7.60429 10.1251H3.93202C3.4411 10.1251 3.04313 9.72715 3.04313 9.23623V7.16319Z" fill="#CAEF7C" stroke="#12121D" stroke-width="0.355556"/>
<path d="M6.36101 12.258C6.36101 11.9635 6.59979 11.7247 6.89434 11.7247H12.1071C12.4016 11.7247 12.6404 11.9635 12.6404 12.258V21.3216H6.36101V12.258Z" fill="white" stroke="#12121D" stroke-width="0.355556"/>
<path d="M14.2403 13.9169C14.2403 13.6224 14.4791 13.3836 14.7736 13.3836H20.8157C21.1103 13.3836 21.3491 13.6224 21.3491 13.9169V17.0562C21.3491 17.3508 21.1103 17.5896 20.8157 17.5896H14.7736C14.4791 17.5896 14.2403 17.3508 14.2403 17.0562V13.9169Z" fill="white" stroke="#12121D" stroke-width="0.355556"/>
<path d="M8.43498 7.16319H13.885V9.23623C13.885 9.72715 13.4871 10.1251 12.9961 10.1251H9.32387C8.83295 10.1251 8.43498 9.72715 8.43498 9.23623V7.16319Z" fill="#96C60F" stroke="#12121D" stroke-width="0.355556"/>
<path d="M13.8251 7.16319H19.2752V9.23623C19.2752 9.72715 18.8772 10.1251 18.3863 10.1251H14.714C14.2231 10.1251 13.8251 9.72715 13.8251 9.23623V7.16319Z" fill="#CAEF7C" stroke="#12121D" stroke-width="0.355556"/>
<path d="M19.2153 7.16319H24.6653V9.23623C24.6653 9.72715 24.2673 10.1251 23.7764 10.1251H20.1041C19.6132 10.1251 19.2153 9.72715 19.2153 9.23623V7.16319Z" fill="#96C60F" stroke="#12121D" stroke-width="0.355556"/>
<circle cx="8.25613" cy="16.5227" r="0.651594" fill="white" stroke="black" stroke-width="0.355556"/>
<path d="M5.7676 2.83728H9.08509L8.25572 6.98414H3.07214L5.7676 2.83728Z" fill="#CAEF7C"/>
<path d="M9.08657 2.83728H13.8555V6.98414H8.2572L9.08657 2.83728Z" fill="#96C60F"/>
<path d="M18.6244 2.83728H22.1492L24.8446 6.98414H19.039L18.6244 2.83728Z" fill="#96C60F"/>
<path d="M13.854 2.83728H18.4155L19.4523 6.98414H13.854V2.83728Z" fill="#CAEF7C"/>
<path d="M8.46387 6.98476L9.29324 2.8379H14.0621L13.8548 6.98476H19.2457L18.4163 2.63055" stroke="black" stroke-width="0.355556"/>
<path d="M3.07214 6.98414L5.7676 2.83728H21.9404L24.6358 6.98414H3.07214Z" stroke="black" stroke-width="0.355556"/>
</svg>
